<svg width="384" height="384" fill="none" xmlns="http://www.w3.org/2000/svg"><path fill="url(#paint0_linear_65_156)" d="M0 0h384v384H0z"/><g clip-path="url(#clip0_65_156)"><path d="M135.882 248.14l7.59-27.89a55.893 55.893 0 01-7.613-28.25c0-31.007 25.134-56.141 56.141-56.141 31.006 0 56.14 25.134 56.14 56.141 0 31.006-25.134 56.14-56.14 56.14a55.88 55.88 0 01-28.239-7.607l-27.879 7.607zm35.857-82.481a5.401 5.401 0 00-2.083.561 7.274 7.274 0 00-1.651 1.28c-.673.634-1.055 1.185-1.465 1.718a15.32 15.32 0 00-3.172 9.42c.011 2.751.73 5.429 1.853 7.933 2.296 5.064 6.074 10.425 11.065 15.394 1.202 1.195 2.375 2.397 3.638 3.514a53.03 53.03 0 0021.558 11.486l3.194.489c1.039.056 2.077-.023 3.122-.073a11.175 11.175 0 004.676-1.297c.932-.494 1.37-.741 2.15-1.235 0 0 .242-.157.702-.505.758-.562 1.224-.96 1.853-1.617.466-.483.87-1.05 1.179-1.696.438-.915.875-2.661 1.055-4.115.135-1.111.096-1.718.079-2.094-.023-.601-.522-1.224-1.067-1.488l-3.267-1.465s-4.885-2.128-7.866-3.486a2.79 2.79 0 00-.993-.23 2.695 2.695 0 00-2.122.713v-.012c-.028 0-.405.32-4.464 5.238a1.959 1.959 0 01-2.065.73 7.95 7.95 0 01-1.073-.37c-.696-.292-.937-.405-1.414-.612l-.029-.012a33.745 33.745 0 01-8.814-5.614c-.707-.617-1.364-1.291-2.037-1.942a35.333 35.333 0 01-5.727-7.119l-.331-.533a5.197 5.197 0 01-.573-1.151c-.213-.825.343-1.488.343-1.488s1.364-1.493 1.998-2.301a24.596 24.596 0 001.477-2.094c.662-1.067.87-2.162.522-3.009-1.572-3.84-3.2-7.664-4.873-11.459-.331-.752-1.314-1.291-2.206-1.398-.303-.033-.607-.067-.91-.089a18.968 18.968 0 00-2.262.022v.006z" fill="#fff"/></g><defs><linearGradient id="paint0_linear_65_156" x1="6.737" y1="390.737" x2="384" y2="0" gradientUnits="userSpaceOnUse"><stop stop-color="#20B038"/><stop offset="1" stop-color="#60D66A"/></linearGradient><clipPath id="clip0_65_156"><path fill="#fff" transform="translate(124.632 124.632)" d="M0 0h134.737v134.737H0z"/></clipPath></defs></svg>