<svg width="114" height="114" fill="none" xmlns="http://www.w3.org/2000/svg"><path fill="url(#paint0_linear_28_428)" d="M0 0h114v114H0z"/><path d="M40.34 73.667l2.253-8.28A16.59 16.59 0 0140.333 57c0-9.205 7.462-16.667 16.667-16.667 9.205 0 16.667 7.462 16.667 16.667 0 9.205-7.462 16.667-16.667 16.667a16.59 16.59 0 01-8.383-2.259l-8.277 2.259zM50.985 49.18c-.215.013-.426.07-.618.167-.181.102-.346.23-.49.38-.2.188-.314.351-.435.51a4.548 4.548 0 00-.942 2.796c.003.817.217 1.612.55 2.355.682 1.504 1.803 3.095 3.285 4.57.357.355.705.712 1.08 1.044a15.748 15.748 0 006.4 3.41l.948.145c.309.016.617-.007.927-.022a3.32 3.32 0 001.388-.385c.277-.147.407-.22.639-.367 0 0 .071-.046.208-.15.225-.166.363-.285.55-.48a1.91 1.91 0 00.35-.503c.13-.272.26-.79.313-1.222.04-.33.029-.51.024-.621-.007-.179-.155-.364-.317-.442l-.97-.435s-1.45-.632-2.335-1.035a.83.83 0 00-.295-.068.804.804 0 00-.63.211v-.003c-.008 0-.12.095-1.325 1.555a.583.583 0 01-.613.217 2.365 2.365 0 01-.319-.11c-.206-.087-.278-.12-.42-.182l-.008-.003a10.016 10.016 0 01-2.617-1.667c-.21-.183-.405-.383-.605-.577a10.494 10.494 0 01-1.7-2.113l-.098-.158a1.542 1.542 0 01-.17-.342c-.063-.245.102-.442.102-.442s.405-.443.593-.683c.157-.2.303-.407.438-.622.197-.316.259-.641.155-.893a139.32 139.32 0 00-1.446-3.402c-.099-.223-.39-.383-.655-.415a6.16 6.16 0 00-.27-.026 5.638 5.638 0 00-.672.006v.002z" fill="#fff"/><defs><linearGradient id="paint0_linear_28_428" x1="2" y1="116" x2="114" y2="0" gradientUnits="userSpaceOnUse"><stop stop-color="#20B038"/><stop offset="1" stop-color="#60D66A"/></linearGradient></defs></svg>