<svg width="384" height="384" viewBox="0 0 384 384" fill="none" xmlns="http://www.w3.org/2000/svg">
<rect width="384" height="384" fill="url(#paint0_linear_65_156)"/>
<g clip-path="url(#clip0_65_156)">
<path d="M135.882 248.14L143.472 220.25C138.471 211.676 135.843 201.925 135.859 192C135.859 160.993 160.993 135.859 192 135.859C223.006 135.859 248.14 160.993 248.14 192C248.14 223.006 223.006 248.14 192 248.14C182.079 248.156 172.332 245.531 163.761 240.533L135.882 248.14ZM171.739 165.659C171.014 165.704 170.305 165.895 169.656 166.22C169.047 166.565 168.491 166.996 168.005 167.5C167.332 168.134 166.95 168.685 166.54 169.218C164.465 171.918 163.349 175.233 163.368 178.638C163.379 181.389 164.098 184.067 165.221 186.571C167.517 191.635 171.295 196.996 176.286 201.965C177.488 203.16 178.661 204.362 179.924 205.479C186.118 210.933 193.5 214.866 201.482 216.965L204.676 217.454C205.715 217.51 206.753 217.431 207.798 217.381C209.433 217.296 211.029 216.854 212.474 216.084C213.406 215.59 213.844 215.343 214.624 214.849C214.624 214.849 214.866 214.692 215.326 214.344C216.084 213.782 216.55 213.384 217.179 212.727C217.645 212.244 218.049 211.677 218.358 211.031C218.796 210.116 219.233 208.37 219.413 206.916C219.548 205.805 219.509 205.198 219.492 204.822C219.469 204.221 218.97 203.598 218.425 203.334L215.158 201.869C215.158 201.869 210.273 199.741 207.292 198.383C206.978 198.246 206.641 198.168 206.299 198.153C205.915 198.113 205.527 198.156 205.161 198.279C204.794 198.402 204.459 198.602 204.177 198.866V198.854C204.149 198.854 203.772 199.174 199.713 204.092C199.481 204.405 199.16 204.642 198.792 204.772C198.424 204.902 198.025 204.919 197.648 204.822C197.282 204.724 196.923 204.601 196.575 204.452C195.879 204.16 195.638 204.047 195.161 203.84L195.132 203.828C191.921 202.426 188.947 200.532 186.318 198.214C185.611 197.597 184.954 196.923 184.281 196.272C182.072 194.157 180.147 191.764 178.554 189.153L178.223 188.62C177.985 188.262 177.793 187.875 177.65 187.469C177.437 186.644 177.993 185.981 177.993 185.981C177.993 185.981 179.357 184.488 179.991 183.68C180.52 183.008 181.012 182.309 181.468 181.586C182.13 180.519 182.338 179.424 181.99 178.577C180.418 174.737 178.79 170.913 177.117 167.118C176.786 166.366 175.803 165.827 174.911 165.72C174.608 165.687 174.304 165.653 174.001 165.631C173.247 165.593 172.492 165.601 171.739 165.653V165.659Z" fill="white"/>
</g>
<defs>
<linearGradient id="paint0_linear_65_156" x1="6.73685" y1="390.737" x2="384" y2="-7.77997e-06" gradientUnits="userSpaceOnUse">
<stop stop-color="#20B038"/>
<stop offset="1" stop-color="#60D66A"/>
</linearGradient>
<clipPath id="clip0_65_156">
<rect width="134.737" height="134.737" fill="white" transform="translate(124.632 124.632)"/>
</clipPath>
</defs>
</svg>
