<svg width="83" height="26" fill="none" xmlns="http://www.w3.org/2000/svg"><path fill-rule="evenodd" clip-rule="evenodd" d="M0 5.27A5.27 5.27 0 015.27 0h4.217v9.487a5.27 5.27 0 01-5.27 5.271H0V5.271zM11.596 0h6.324c5.822 0 10.542 4.72 10.542 10.541V25.3h-6.325c-5.822 0-10.541-4.72-10.541-10.541V0zM5.27 25.3a4.217 4.217 0 100-8.434 4.217 4.217 0 000 8.433z" fill="url(#paint0_linear_12_1034)"/><path d="M45.562 16.793l.721 2.182h2.847L44.803 6.319H41.56l-4.364 12.656h2.75l.76-2.183h4.857zm-.683-2.126h-3.51l1.765-5.237 1.745 5.237zm11.563-8.348h-5.579v2.125h2.98v5.407c0 1.841-.266 2.467-1.196 2.847-.399.151-.683.19-1.423.19-.076 0-.19 0-.36-.02v2.296c1.688 0 2.56-.114 3.3-.436 1.614-.683 2.278-1.917 2.278-4.25v-8.16zm5.593 0h-2.6v7.324c0 1.954.323 3.093 1.14 4.003.891.987 2.295 1.575 3.832 1.575 1.48 0 2.808-.531 3.662-1.48.854-.93 1.253-2.239 1.253-4.098V6.319h-2.619v7.4c0 1.176-.114 1.726-.493 2.239-.38.53-1.12.873-1.84.873-.665 0-1.386-.323-1.766-.779-.417-.493-.569-1.157-.569-2.314v-7.42zm17.398 10.474l.72 2.182H83L78.674 6.319h-3.245l-4.364 12.656h2.751l.76-2.183h4.857zm-.683-2.126h-3.51l1.764-5.237 1.746 5.237z" fill="#15171A"/><defs><linearGradient id="paint0_linear_12_1034" x1="1.186" y1="12.65" x2="28.462" y2="12.65" gradientUnits="userSpaceOnUse"><stop stop-color="#4171F3"/><stop offset="1" stop-color="#922DE2"/></linearGradient></defs></svg>